<svg id="Capa_1" enable-background="new 0 0 512 512" height="512" viewBox="0 0 512 512" width="512" xmlns="http://www.w3.org/2000/svg" xmlns:xlink="http://www.w3.org/1999/xlink"><linearGradient id="SVGID_1_" gradientUnits="userSpaceOnUse" x1="278.5" x2="278.5" y1="512" y2="75"><stop offset="0" stop-color="#c3ffe8"/><stop offset=".9973" stop-color="#f0fff4"/></linearGradient><linearGradient id="SVGID_2_" gradientUnits="userSpaceOnUse" x1="195" x2="195" y1="390.007" y2="0"><stop offset="0" stop-color="#00b59c"/><stop offset="1" stop-color="#9cffac"/></linearGradient><g><g><g><path d="m345 75h-300v180h300zm152 105h-122c-8.291 0-15 6.709-15 15v105h-165c-8.291 0-15 6.709-15 15v120c0 8.291 6.709 15 15 15h173.789l55.605 57.602c4.364 4.364 10.894 5.546 16.348 3.252 5.596-2.314 9.258-7.793 9.258-13.857v-46.997h47c8.291 0 15-6.709 15-15v-240c0-8.291-6.709-15-15-15z" fill="url(#SVGID_1_)"/></g></g><g><g><path d="m375 0h-360c-8.401 0-15 6.599-15 15v300c0 8.399 6.599 15 15 15h45v45c0 6 3.6 11.4 9.3 13.799 4.357 2.181 11.796 1.597 16.199-3.3l55.802-55.499h233.699c8.401 0 15-6.601 15-15v-300c0-8.401-6.599-15-15-15zm-45 225c0 5.1-2.701 9.899-7.2 12.9-3.693 2.307-8.825 2.989-14.399.601l-68.401-34.201v20.7c0 8.399-6.599 15-15 15h-150c-8.401 0-15-6.601-15-15v-120c0-8.401 6.599-15 15-15h150c8.401 0 15 6.599 15 15v20.7l68.401-34.2c4.499-2.1 10.199-2.1 14.399.601 4.499 3 7.2 7.8 7.2 12.9z" fill="url(#SVGID_2_)"/></g></g></g></svg>